<svg width="147.417755" height="33.984375" viewBox="0 0 147.418 33.9844" fill="none" xmlns="http://www.w3.org/2000/svg" xmlns:xlink="http://www.w3.org/1999/xlink">
	<desc>
			Created with Pixso.
	</desc>
	<defs/>
	<path id="Меню" d="M30.52 13.48L30.57 33.59L37.87 33.59L37.82 0L31.39 0L19 20.88L6.43 0L0 0L0 33.59L7.3 33.59L7.3 13.87L17.19 30.04L20.64 30.04L30.52 13.48ZM62.09 27.38Q60.53 27.98 58.51 27.98Q55.97 27.98 54.21 27.02Q53.53 26.64 52.99 26.12Q52.15 25.31 51.64 24.14L70.75 20.44Q70.75 16.48 69 13.56Q68.97 13.51 68.94 13.46Q67.95 11.83 66.58 10.62Q65.48 9.65 64.13 8.95Q63.69 8.73 63.25 8.54Q60.58 7.39 57.41 7.39Q53.94 7.39 51.07 8.71Q50.69 8.89 50.32 9.09Q48.69 9.97 47.42 11.22Q46.24 12.38 45.38 13.85Q44.91 14.63 44.57 15.46Q43.58 17.87 43.58 20.68Q43.58 23.73 44.73 26.26Q45.02 26.92 45.4 27.55Q45.92 28.41 46.56 29.16Q48.18 31.06 50.59 32.28Q53.95 33.98 58.32 33.98Q64.06 33.98 67.54 31.18Q68.31 30.56 68.98 29.8L64.99 25.48Q63.64 26.77 62.09 27.38ZM140.15 8.79Q137.25 7.39 133.68 7.39Q129.61 7.39 126.48 9.11Q125.7 9.54 124.98 10.07Q123.45 11.22 122.37 12.69Q120.92 14.68 120.28 17.27L116.69 17.27L116.69 7.76L109.25 7.76L109.25 33.59L116.69 33.59L116.69 23.75L120.24 23.75Q120.63 25.68 121.55 27.33Q122.06 28.26 122.73 29.1Q123.37 29.89 124.11 30.56Q125.56 31.87 127.43 32.71Q130.27 33.98 133.68 33.98Q137.25 33.98 140.15 32.58Q140.44 32.44 140.73 32.28Q142.44 31.34 143.74 30.02Q144.83 28.92 145.63 27.55Q145.95 27 146.22 26.43Q147.41 23.83 147.41 20.68Q147.41 17.53 146.22 14.93Q145.95 14.36 145.63 13.81Q144.81 12.42 143.72 11.31Q142.42 10.01 140.73 9.09Q140.44 8.93 140.15 8.79ZM83.37 7.76L75.93 7.76L75.93 33.59L83.37 33.59L83.37 23.95L94.61 23.95L94.61 33.59L102.1 33.59L102.1 7.76L94.61 7.76L94.61 17.85L83.37 17.85L83.37 7.76ZM54.08 13.87Q55.51 13.05 57.41 13.05Q59.26 13.05 60.68 13.83Q61.02 14.02 61.34 14.26Q62.06 14.79 62.57 15.47Q63.21 16.34 63.5 17.47L50.93 19.92Q51.02 16.97 52.5 15.2Q52.64 15.03 52.79 14.88Q53.38 14.28 54.08 13.87ZM136.46 27.22Q135.22 27.83 133.68 27.83Q132.05 27.83 130.76 27.17Q129.84 26.7 129.09 25.89Q128.85 25.64 128.65 25.37Q127.29 23.53 127.29 20.68Q127.29 17.73 128.72 15.89Q128.89 15.66 129.09 15.45Q129.83 14.66 130.74 14.2Q132.04 13.53 133.68 13.53Q135.23 13.53 136.48 14.15Q137.44 14.62 138.21 15.45Q138.42 15.67 138.61 15.92Q140.02 17.76 140.02 20.68Q140.02 23.5 138.67 25.34Q138.46 25.63 138.21 25.89Q137.43 26.74 136.46 27.22Z" fill="#45403D" fill-opacity="1.000000" fill-rule="evenodd"/>
</svg>
